<svg width="80" height="52" viewBox="0 0 80 52" fill="none" xmlns="http://www.w3.org/2000/svg">
<rect width="80" height="52" fill="white" fill-opacity="0.01"/>
<path fill-rule="evenodd" clip-rule="evenodd" d="M49.3781 25.1404C49.3659 25.1381 49.3537 25.1357 49.3417 25.1334C48.581 25.9452 47.7497 26.3511 46.8476 26.3511C45.9454 26.3511 45.1049 25.9452 44.3259 25.1334C42.1466 24.9594 41.057 23.3266 41.057 20.2349C41.057 17.4044 42.194 15.5441 44.468 14.6541C44.5072 14.6387 44.5468 14.6247 44.5868 14.6119C44.5295 15.0665 44.5 15.5298 44.5 16C44.5 19.8092 46.4362 23.1661 49.3781 25.1404ZM37.0049 28.4204C36.157 28.1922 35.33 28.08 34.307 28.08C29.6909 28.08 26.4191 30.6524 25.5473 34.1264L25.5211 34.2524C25.5071 34.3371 25.5 34.4228 25.5 34.5088C25.5 35.3765 26.2034 36.08 27.0712 36.08L34.9078 36.0811C34.9499 36.0811 34.9919 36.0783 35.0336 36.0726C35.5453 36.0032 35.9038 35.5321 35.8344 35.0205L35.8154 34.852C35.8052 34.739 35.8 34.6245 35.8 34.5088C35.8 34.3026 35.8169 34.0968 35.8671 33.8048L35.9134 33.5908L36.0111 33.2303C36.3811 31.9607 36.9005 30.8744 37.708 29.8859L37.796 29.7682C37.8362 29.7043 37.8677 29.635 37.8895 29.5623C38.0236 29.116 37.7705 28.6456 37.3242 28.5115L37.0049 28.4204ZM55.3695 33.9785C54.5295 30.4675 51.3205 28.08 46.807 28.08C42.1909 28.08 38.9191 30.6524 38.0473 34.1264L38.0211 34.2524C38.0071 34.3371 38 34.4228 38 34.5088C38 35.3765 38.7034 36.08 39.5712 36.08H53.9074C54.0125 36.08 54.1173 36.0693 54.2202 36.0481C55.0573 35.8753 55.5958 35.0567 55.4231 34.2196L55.3695 33.9785ZM38.7356 19.0302C38.8278 15.9006 37.2558 14.568 35.6007 14.1715C33.9855 13.7845 32.9784 14.0569 32.5793 14.9886C32.1847 14.8472 31.7662 14.8472 31.3239 14.9886C30.2097 15.3469 29.6335 16.7906 29.5953 19.3197C29.2364 19.4924 29.057 19.9132 29.057 20.5821C29.057 21.251 29.2364 21.6641 29.5953 21.8214C30.5506 24.8711 32.1357 26.3959 34.3507 26.3959C36.5658 26.3959 38.023 24.8711 38.7226 21.8214C39.1043 21.6022 39.2951 21.1891 39.2951 20.5821C39.2951 19.9092 38.9576 19.5791 38.7998 19.4248C38.7441 19.3703 38.7108 19.3377 38.7226 19.3197L38.7356 19.0302Z" fill="#A4AAB2"/>
<g clip-path="url(#clip0_2_121)">
<path fill-rule="evenodd" clip-rule="evenodd" d="M55.5 24C59.9183 24 63.5 20.4183 63.5 16C63.5 11.5817 59.9183 8 55.5 8C51.0817 8 47.5 11.5817 47.5 16C47.5 20.4183 51.0817 24 55.5 24Z" fill="#5AD439" fill-opacity="0.16"/>
<path d="M52.3188 13.6206H54.0962C54.0962 12.7256 54.6802 12.0972 55.6133 12.0972C56.5083 12.0972 57.0288 12.6938 57.0288 13.4429C57.0288 14.0776 56.7812 14.4966 55.6387 15.6074L52.4268 18.7114V20H59.0347V18.4575H55.0103V18.3433L56.9146 16.5278C58.438 15.0806 58.9077 14.3442 58.9077 13.2715C58.9077 11.729 57.6636 10.6055 55.7212 10.6055C53.7153 10.6055 52.3188 11.8369 52.3188 13.6206Z" fill="#5AD439"/>
</g>
<defs>
<clipPath id="clip0_2_121">
<rect width="16" height="16" fill="white" transform="translate(47.5 8)"/>
</clipPath>
</defs>
</svg>
