<svg width="80" height="52" viewBox="0 0 80 52" fill="none" xmlns="http://www.w3.org/2000/svg">
<rect width="80" height="52" fill="white" fill-opacity="0.01"/>
<path fill-rule="evenodd" clip-rule="evenodd" d="M40.5 14C47.1274 14 52.5 19.3726 52.5 26C52.5 32.6274 47.1274 38 40.5 38C33.8726 38 28.5 32.6274 28.5 26C28.5 19.3726 33.8726 14 40.5 14ZM46.3423 20.5072C46.1323 20.1609 45.7013 20.0308 45.34 20.1881L45.2434 20.2381L39.1209 23.9555C38.9011 24.0889 38.7097 24.2632 38.5565 24.4682L38.449 24.6276L34.7381 30.7434L34.6881 30.84C34.5451 31.1685 34.6396 31.5545 34.9181 31.7798L35.0072 31.8423L35.1072 31.8938C35.3124 31.9817 35.5455 31.9798 35.7492 31.8885L35.8484 31.8354L41.91 28.0331C42.1145 27.9048 42.2936 27.7409 42.4392 27.5495L42.5419 27.401L46.3354 21.3484C46.4968 21.0919 46.4995 20.7663 46.3423 20.5072Z" fill="#A4AAB2"/>
</svg>
